<svg xmlns="http://www.w3.org/2000/svg" width="1200" height="360" viewBox="0 0 1200 360" role="img" aria-labelledby="title desc">
  <title id="title">Cristian Echeverry — full-stack developer</title>
  <desc id="desc">A bold yellow, pink and midnight-blue poster introducing Cristian Echeverry and his work in digital products.</desc>
  <defs>
    <pattern id="dots" width="26" height="26" patternUnits="userSpaceOnUse"><circle cx="2" cy="2" r="1.2" fill="#ffdb3c" opacity=".22"/></pattern>
    <pattern id="lines" width="92" height="92" patternUnits="userSpaceOnUse" patternTransform="skewX(-18)"><path d="M2 0V92" stroke="#fb4c8e" stroke-opacity=".13" stroke-width="2"/></pattern>
    <clipPath id="yellow-panel"><path d="M24 24H713L664 328H24Z"/></clipPath>
  </defs>
  <rect width="1200" height="360" fill="#111225"/>
  <rect width="1200" height="360" fill="url(#dots)"/>
  <rect width="1200" height="360" fill="url(#lines)"/>
  <path d="M36 36H725L676 340H36Z" fill="#fb4c8e"/>
  <path d="M24 24H713L664 328H24Z" fill="#ffdb3c"/>
  <g clip-path="url(#yellow-panel)">
    <path d="M584 0h84L506 360h-84Z" fill="#fff0a5" opacity=".24"/>
    <path d="M621 0h19L478 360h-19Z" fill="#111225" opacity=".07"/>
    <circle cx="615" cy="79" r="42" fill="#fb4c8e"/>
    <path d="M615 48l8 23 23 8-23 8-8 23-8-23-23-8 23-8Z" fill="#111225"/>
  </g>
  <text x="68" y="69" fill="#251a2a" font-family="Arial, sans-serif" font-size="16" font-weight="900" letter-spacing="3">CDE571 / DIGITAL CREATOR</text>
  <path d="M68 87h394" stroke="#251a2a" stroke-width="3"/>
  <text x="62" y="173" fill="#17152b" font-family="Arial Black, Arial, sans-serif" font-size="87" font-weight="900" letter-spacing="-6">CRISTIAN</text>
  <text x="62" y="255" fill="#17152b" font-family="Arial Black, Arial, sans-serif" font-size="78" font-weight="900" letter-spacing="-6">ECHEVERRY</text>
  <text x="70" y="298" fill="#352136" font-family="Arial, sans-serif" font-size="18" font-weight="800" letter-spacing="2">INTERFACES WITH IDENTITY.</text>
  <rect x="752" y="31" width="414" height="295" rx="7" fill="#17182d" stroke="#ffdb3c" stroke-width="2"/>
  <text x="779" y="70" fill="#ffdb3c" font-family="Arial, sans-serif" font-size="16" font-weight="900" letter-spacing="3">✦  DESIGN / BUILD / SHIP</text>
  <path d="M779 89h360" stroke="#ffdb3c" stroke-opacity=".6" stroke-width="2"/>
  <text x="781" y="142" fill="#fff6e1" font-family="Arial Black, Arial, sans-serif" font-size="33" font-weight="900" letter-spacing="-1">FULL-STACK</text>
  <text x="781" y="178" fill="#fff6e1" font-family="Arial Black, Arial, sans-serif" font-size="33" font-weight="900" letter-spacing="-1">DEVELOPER</text>
  <rect x="779" y="207" width="187" height="35" rx="4" fill="#fb4c8e"/>
  <text x="792" y="231" fill="#17152b" font-family="Arial, sans-serif" font-size="15" font-weight="900" letter-spacing="1">FROM COLOMBIA</text>
  <rect x="975" y="207" width="164" height="35" rx="4" fill="#ffdb3c"/>
  <text x="990" y="231" fill="#17152b" font-family="Arial, sans-serif" font-size="15" font-weight="900" letter-spacing="1">OPEN TO BUILD</text>
  <path d="M779 266h360" stroke="#ffdb3c" stroke-opacity=".6" stroke-width="2"/>
  <text x="780" y="292" fill="#cbc6d7" font-family="Arial, sans-serif" font-size="14" font-weight="700" letter-spacing="1.4">WEB EXPERIENCES · PRACTICAL SYSTEMS</text>
  <rect x="0" y="350" width="1200" height="10" fill="#fb4c8e"/>
</svg>
